<svg id="visual" viewBox="0 0 900 600" width="900" height="600" xmlns="http://www.w3.org/2000/svg" xmlns:xlink="http://www.w3.org/1999/xlink" version="1.1"><rect x="0" y="0" width="900" height="600" fill="#293241"></rect><g fill="none" stroke="#bc4b51" stroke-width="2"><circle r="67" cx="620" cy="379"></circle><circle r="41" cx="777" cy="288"></circle><circle r="56" cx="497" cy="204"></circle><circle r="46" cx="456" cy="463"></circle><circle r="61" cx="838" cy="574"></circle><circle r="46" cx="13" cy="170"></circle><circle r="65" cx="12" cy="441"></circle><circle r="52" cx="290" cy="441"></circle><circle r="51" cx="852" cy="27"></circle><circle r="49" cx="588" cy="56"></circle><circle r="59" cx="87" cy="6"></circle><circle r="58" cx="133" cy="270"></circle><circle r="55" cx="724" cy="141"></circle><circle r="40" cx="438" cy="75"></circle><circle r="46" cx="279" cy="280"></circle><circle r="52" cx="247" cy="83"></circle><circle r="55" cx="843" cy="416"></circle><circle r="55" cx="621" cy="598"></circle><circle r="45" cx="177" cy="554"></circle><circle r="46" cx="888" cy="172"></circle><circle r="64" cx="360" cy="590"></circle><circle r="62" cx="21" cy="590"></circle></g></svg>