<svg id="visual" viewBox="0 0 960 540" width="960" height="540" xmlns="http://www.w3.org/2000/svg" xmlns:xlink="http://www.w3.org/1999/xlink" version="1.1"><rect x="0" y="0" width="960" height="540" fill="#001220"></rect><path d="M0 295L13.3 273.3C26.7 251.7 53.3 208.3 80 194.5C106.7 180.7 133.3 196.3 160 214.7C186.7 233 213.3 254 240 261C266.7 268 293.3 261 320 255.7C346.7 250.3 373.3 246.7 400 237.5C426.7 228.3 453.3 213.7 480 222C506.7 230.3 533.3 261.7 560 273.7C586.7 285.7 613.3 278.3 640 263.3C666.7 248.3 693.3 225.7 720 228.7C746.7 231.7 773.3 260.3 800 265.8C826.7 271.3 853.3 253.7 880 242.8C906.7 232 933.3 228 946.7 226L960 224L960 541L946.7 541C933.3 541 906.7 541 880 541C853.3 541 826.7 541 800 541C773.3 541 746.7 541 720 541C693.3 541 666.7 541 640 541C613.3 541 586.7 541 560 541C533.3 541 506.7 541 480 541C453.3 541 426.7 541 400 541C373.3 541 346.7 541 320 541C293.3 541 266.7 541 240 541C213.3 541 186.7 541 160 541C133.3 541 106.7 541 80 541C53.3 541 26.7 541 13.3 541L0 541Z" fill="#fa7268"></path><path d="M0 378L13.3 380.2C26.7 382.3 53.3 386.7 80 393.2C106.7 399.7 133.3 408.3 160 397.7C186.7 387 213.3 357 240 349.8C266.7 342.7 293.3 358.3 320 370C346.7 381.7 373.3 389.3 400 384.8C426.7 380.3 453.3 363.7 480 360.8C506.7 358 533.3 369 560 382.7C586.7 396.3 613.3 412.7 640 412.7C666.7 412.7 693.3 396.3 720 391.2C746.7 386 773.3 392 800 388.7C826.7 385.3 853.3 372.7 880 364.3C906.7 356 933.3 352 946.7 350L960 348L960 541L946.7 541C933.3 541 906.7 541 880 541C853.3 541 826.7 541 800 541C773.3 541 746.7 541 720 541C693.3 541 666.7 541 640 541C613.3 541 586.7 541 560 541C533.3 541 506.7 541 480 541C453.3 541 426.7 541 400 541C373.3 541 346.7 541 320 541C293.3 541 266.7 541 240 541C213.3 541 186.7 541 160 541C133.3 541 106.7 541 80 541C53.3 541 26.7 541 13.3 541L0 541Z" fill="#c62368"></path></svg>